<?xml version="1.0" standalone="no"?>
<!DOCTYPE svg PUBLIC "-//W3C//DTD SVG 20010904//EN"
 "http://www.w3.org/TR/2001/REC-SVG-20010904/DTD/svg10.dtd">
<svg version="1.0" xmlns="http://www.w3.org/2000/svg"
 width="700.000000pt" height="700.000000pt" viewBox="0 0 700.000000 700.000000"
 preserveAspectRatio="xMidYMid meet">
<metadata>
Created by potrace 1.11, written by Peter Selinger 2001-2013
</metadata>
<g transform="translate(0.000000,700.000000) scale(0.100000,-0.100000)"
fill="#000000" stroke="none">
<path d="M3310 6111 c0 -6 7 -88 15 -183 45 -532 49 -1180 9 -1548 -28 -260
-93 -498 -167 -615 l-32 -50 -12 140 c-63 700 -157 1002 -340 1092 -49 23 -69
27 -133 26 -183 -3 -407 -99 -595 -253 -511 -420 -823 -1152 -966 -2265 -26
-205 -36 -562 -20 -703 31 -262 114 -428 249 -494 38 -18 63 -23 127 -22 68 1
104 9 235 52 85 28 238 76 340 107 622 189 873 296 1028 439 63 58 83 104 98
230 22 175 36 629 29 906 l-7 255 65 42 c133 87 239 231 270 367 l13 57 11
-55 c27 -129 130 -274 253 -357 l49 -34 -6 -320 c-7 -420 14 -848 48 -979 8
-28 31 -60 77 -106 146 -145 394 -253 1032 -449 162 -49 338 -104 390 -121
123 -40 200 -47 271 -27 151 44 245 195 285 457 25 167 18 517 -17 785 -73
568 -212 1096 -385 1463 -277 589 -718 986 -1141 1027 -291 29 -428 -253 -499
-1030 -9 -99 -17 -181 -19 -183 -5 -6 -62 120 -85 188 -121 360 -149 1188 -70
2050 6 58 10 108 10 113 0 4 -92 7 -205 7 -123 0 -205 -4 -205 -9z"/>
</g>
</svg>
